<mxfile host="Electron" modified="2023-11-16T04:54:49.728Z" agent="Mozilla/5.0 (Windows NT 10.0; Win64; x64) AppleWebKit/537.36 (KHTML, like Gecko) draw.io/22.0.3 Chrome/114.0.5735.289 Electron/25.8.4 Safari/537.36" etag="XHe-UG58A4tCwETG6yQF" version="22.0.3" type="device">
  <diagram id="R2lEEEUBdFMjLlhIrx00" name="Page-1">
    <mxGraphModel dx="-478" dy="-662" grid="1" gridSize="10" guides="1" tooltips="1" connect="1" arrows="1" fold="1" page="1" pageScale="1" pageWidth="850" pageHeight="1100" math="0" shadow="0" extFonts="Permanent Marker^https://fonts.googleapis.com/css?family=Permanent+Marker">
      <root>
        <mxCell id="0" />
        <mxCell id="1" parent="0" />
        <mxCell id="gcv4qvrsUKg5lfSOAShm-52" value="" style="group" parent="1" vertex="1" connectable="0">
          <mxGeometry x="1243" y="1378" width="800" height="40" as="geometry" />
        </mxCell>
        <mxCell id="gcv4qvrsUKg5lfSOAShm-13" value="" style="endArrow=none;html=1;rounded=0;" parent="gcv4qvrsUKg5lfSOAShm-52" edge="1">
          <mxGeometry width="50" height="50" relative="1" as="geometry">
            <mxPoint y="40" as="sourcePoint" />
            <mxPoint x="800" y="40" as="targetPoint" />
          </mxGeometry>
        </mxCell>
        <mxCell id="gcv4qvrsUKg5lfSOAShm-14" value="" style="endArrow=none;html=1;rounded=0;entryX=0.056;entryY=0.998;entryDx=0;entryDy=0;entryPerimeter=0;" parent="gcv4qvrsUKg5lfSOAShm-52" edge="1">
          <mxGeometry width="50" height="50" relative="1" as="geometry">
            <mxPoint y="40" as="sourcePoint" />
            <mxPoint y="0.39408866995073893" as="targetPoint" />
          </mxGeometry>
        </mxCell>
        <mxCell id="gcv4qvrsUKg5lfSOAShm-15" value="" style="endArrow=classic;html=1;rounded=0;entryX=0.36;entryY=1.042;entryDx=0;entryDy=0;entryPerimeter=0;" parent="gcv4qvrsUKg5lfSOAShm-52" edge="1">
          <mxGeometry width="50" height="50" relative="1" as="geometry">
            <mxPoint x="270" y="40" as="sourcePoint" />
            <mxPoint x="270" y="1.1822660098522169" as="targetPoint" />
          </mxGeometry>
        </mxCell>
        <mxCell id="gcv4qvrsUKg5lfSOAShm-16" value="" style="endArrow=classic;html=1;rounded=0;entryX=0.446;entryY=0.992;entryDx=0;entryDy=0;entryPerimeter=0;" parent="gcv4qvrsUKg5lfSOAShm-52" edge="1">
          <mxGeometry width="50" height="50" relative="1" as="geometry">
            <mxPoint x="347" y="39.60591133004927" as="sourcePoint" />
            <mxPoint x="347" y="0.39408866995073893" as="targetPoint" />
          </mxGeometry>
        </mxCell>
        <mxCell id="gcv4qvrsUKg5lfSOAShm-17" value="" style="endArrow=classic;html=1;rounded=0;entryX=0.738;entryY=0.992;entryDx=0;entryDy=0;entryPerimeter=0;" parent="gcv4qvrsUKg5lfSOAShm-52" edge="1">
          <mxGeometry width="50" height="50" relative="1" as="geometry">
            <mxPoint x="607" y="40" as="sourcePoint" />
            <mxPoint x="607" y="0.39408866995073893" as="targetPoint" />
          </mxGeometry>
        </mxCell>
        <mxCell id="gcv4qvrsUKg5lfSOAShm-18" value="" style="endArrow=classic;html=1;rounded=0;entryX=0.649;entryY=1.025;entryDx=0;entryDy=0;entryPerimeter=0;" parent="gcv4qvrsUKg5lfSOAShm-52" edge="1">
          <mxGeometry width="50" height="50" relative="1" as="geometry">
            <mxPoint x="528" y="40" as="sourcePoint" />
            <mxPoint x="528" y="0.7881773399014779" as="targetPoint" />
          </mxGeometry>
        </mxCell>
        <mxCell id="gcv4qvrsUKg5lfSOAShm-19" value="" style="endArrow=classic;html=1;rounded=0;entryX=0.549;entryY=1.025;entryDx=0;entryDy=0;entryPerimeter=0;" parent="gcv4qvrsUKg5lfSOAShm-52" edge="1">
          <mxGeometry width="50" height="50" relative="1" as="geometry">
            <mxPoint x="439" y="40" as="sourcePoint" />
            <mxPoint x="439" y="0.7881773399014779" as="targetPoint" />
          </mxGeometry>
        </mxCell>
        <mxCell id="gcv4qvrsUKg5lfSOAShm-20" value="" style="endArrow=classic;html=1;rounded=0;entryX=0.842;entryY=1.058;entryDx=0;entryDy=0;entryPerimeter=0;" parent="gcv4qvrsUKg5lfSOAShm-52" edge="1">
          <mxGeometry width="50" height="50" relative="1" as="geometry">
            <mxPoint x="700" y="39.80295566502463" as="sourcePoint" />
            <mxPoint x="699" y="1.1822660098522169" as="targetPoint" />
          </mxGeometry>
        </mxCell>
        <mxCell id="gcv4qvrsUKg5lfSOAShm-21" value="" style="endArrow=classic;html=1;rounded=0;entryX=0.955;entryY=0.975;entryDx=0;entryDy=0;entryPerimeter=0;" parent="gcv4qvrsUKg5lfSOAShm-52" edge="1">
          <mxGeometry width="50" height="50" relative="1" as="geometry">
            <mxPoint x="800" y="40" as="sourcePoint" />
            <mxPoint x="800" as="targetPoint" />
          </mxGeometry>
        </mxCell>
        <mxCell id="gcv4qvrsUKg5lfSOAShm-55" value="" style="group" parent="1" vertex="1" connectable="0">
          <mxGeometry x="1323" y="1418" width="720" height="40" as="geometry" />
        </mxCell>
        <mxCell id="gcv4qvrsUKg5lfSOAShm-37" value="" style="endArrow=none;html=1;rounded=0;" parent="gcv4qvrsUKg5lfSOAShm-55" edge="1">
          <mxGeometry width="50" height="50" relative="1" as="geometry">
            <mxPoint y="40" as="sourcePoint" />
            <mxPoint x="720" y="39.80392156862745" as="targetPoint" />
          </mxGeometry>
        </mxCell>
        <mxCell id="gcv4qvrsUKg5lfSOAShm-39" value="" style="endArrow=classic;html=1;rounded=0;entryX=0.36;entryY=1.042;entryDx=0;entryDy=0;entryPerimeter=0;" parent="gcv4qvrsUKg5lfSOAShm-55" edge="1">
          <mxGeometry width="50" height="50" relative="1" as="geometry">
            <mxPoint x="190" y="39.80392156862745" as="sourcePoint" />
            <mxPoint x="190" y="1.1764705882352942" as="targetPoint" />
          </mxGeometry>
        </mxCell>
        <mxCell id="gcv4qvrsUKg5lfSOAShm-40" value="" style="endArrow=classic;html=1;rounded=0;entryX=0.446;entryY=0.992;entryDx=0;entryDy=0;entryPerimeter=0;" parent="gcv4qvrsUKg5lfSOAShm-55" edge="1">
          <mxGeometry width="50" height="50" relative="1" as="geometry">
            <mxPoint x="267" y="39.411764705882355" as="sourcePoint" />
            <mxPoint x="267" y="0.39215686274509803" as="targetPoint" />
          </mxGeometry>
        </mxCell>
        <mxCell id="gcv4qvrsUKg5lfSOAShm-41" value="" style="endArrow=classic;html=1;rounded=0;entryX=0.738;entryY=0.992;entryDx=0;entryDy=0;entryPerimeter=0;" parent="gcv4qvrsUKg5lfSOAShm-55" edge="1">
          <mxGeometry width="50" height="50" relative="1" as="geometry">
            <mxPoint x="527" y="39.80392156862745" as="sourcePoint" />
            <mxPoint x="527" y="0.39215686274509803" as="targetPoint" />
          </mxGeometry>
        </mxCell>
        <mxCell id="gcv4qvrsUKg5lfSOAShm-42" value="" style="endArrow=classic;html=1;rounded=0;entryX=0.649;entryY=1.025;entryDx=0;entryDy=0;entryPerimeter=0;" parent="gcv4qvrsUKg5lfSOAShm-55" edge="1">
          <mxGeometry width="50" height="50" relative="1" as="geometry">
            <mxPoint x="448" y="39.80392156862745" as="sourcePoint" />
            <mxPoint x="448" y="0.7843137254901961" as="targetPoint" />
          </mxGeometry>
        </mxCell>
        <mxCell id="gcv4qvrsUKg5lfSOAShm-43" value="" style="endArrow=classic;html=1;rounded=0;entryX=0.549;entryY=1.025;entryDx=0;entryDy=0;entryPerimeter=0;" parent="gcv4qvrsUKg5lfSOAShm-55" edge="1">
          <mxGeometry width="50" height="50" relative="1" as="geometry">
            <mxPoint x="359" y="39.80392156862745" as="sourcePoint" />
            <mxPoint x="359" y="0.7843137254901961" as="targetPoint" />
          </mxGeometry>
        </mxCell>
        <mxCell id="gcv4qvrsUKg5lfSOAShm-44" value="" style="endArrow=classic;html=1;rounded=0;entryX=0.842;entryY=1.058;entryDx=0;entryDy=0;entryPerimeter=0;" parent="gcv4qvrsUKg5lfSOAShm-55" edge="1">
          <mxGeometry width="50" height="50" relative="1" as="geometry">
            <mxPoint x="620" y="39.6078431372549" as="sourcePoint" />
            <mxPoint x="619" y="1.1764705882352942" as="targetPoint" />
          </mxGeometry>
        </mxCell>
        <mxCell id="gcv4qvrsUKg5lfSOAShm-45" value="" style="endArrow=classic;html=1;rounded=0;entryX=0.955;entryY=0.975;entryDx=0;entryDy=0;entryPerimeter=0;" parent="gcv4qvrsUKg5lfSOAShm-55" edge="1">
          <mxGeometry width="50" height="50" relative="1" as="geometry">
            <mxPoint x="720" y="39.80392156862745" as="sourcePoint" />
            <mxPoint x="720" as="targetPoint" />
          </mxGeometry>
        </mxCell>
        <mxCell id="gcv4qvrsUKg5lfSOAShm-47" value="" style="endArrow=none;html=1;rounded=0;entryX=0.146;entryY=0.978;entryDx=0;entryDy=0;entryPerimeter=0;" parent="gcv4qvrsUKg5lfSOAShm-55" edge="1">
          <mxGeometry width="50" height="50" relative="1" as="geometry">
            <mxPoint y="40" as="sourcePoint" />
            <mxPoint as="targetPoint" />
          </mxGeometry>
        </mxCell>
        <mxCell id="C1jLJrb4n3oBirYwQFJx-1" value="" style="shape=table;startSize=0;container=1;collapsible=0;childLayout=tableLayout;" parent="1" vertex="1">
          <mxGeometry x="1193" y="1268" width="890" height="70" as="geometry" />
        </mxCell>
        <mxCell id="C1jLJrb4n3oBirYwQFJx-2" value="" style="shape=tableRow;horizontal=0;startSize=0;swimlaneHead=0;swimlaneBody=0;strokeColor=inherit;top=0;left=0;bottom=0;right=0;collapsible=0;dropTarget=0;fillColor=none;points=[[0,0.5],[1,0.5]];portConstraint=eastwest;" parent="C1jLJrb4n3oBirYwQFJx-1" vertex="1">
          <mxGeometry width="890" height="70" as="geometry" />
        </mxCell>
        <mxCell id="C1jLJrb4n3oBirYwQFJx-3" value="&lt;u&gt;UserAccountID&lt;/u&gt;" style="shape=partialRectangle;html=1;whiteSpace=wrap;connectable=0;strokeColor=inherit;overflow=hidden;fillColor=none;top=0;left=0;bottom=0;right=0;pointerEvents=1;" parent="C1jLJrb4n3oBirYwQFJx-2" vertex="1">
          <mxGeometry width="89" height="70" as="geometry">
            <mxRectangle width="89" height="70" as="alternateBounds" />
          </mxGeometry>
        </mxCell>
        <mxCell id="C1jLJrb4n3oBirYwQFJx-4" value="&lt;u&gt;UserName&lt;/u&gt;" style="shape=partialRectangle;html=1;whiteSpace=wrap;connectable=0;strokeColor=inherit;overflow=hidden;fillColor=none;top=0;left=0;bottom=0;right=0;pointerEvents=1;" parent="C1jLJrb4n3oBirYwQFJx-2" vertex="1">
          <mxGeometry x="89" width="89" height="70" as="geometry">
            <mxRectangle width="89" height="70" as="alternateBounds" />
          </mxGeometry>
        </mxCell>
        <mxCell id="C1jLJrb4n3oBirYwQFJx-5" value="&lt;u&gt;SSN&lt;/u&gt;" style="shape=partialRectangle;html=1;whiteSpace=wrap;connectable=0;strokeColor=inherit;overflow=hidden;fillColor=none;top=0;left=0;bottom=0;right=0;pointerEvents=1;" parent="C1jLJrb4n3oBirYwQFJx-2" vertex="1">
          <mxGeometry x="178" width="89" height="70" as="geometry">
            <mxRectangle width="89" height="70" as="alternateBounds" />
          </mxGeometry>
        </mxCell>
        <mxCell id="MJ64a9vV4Tg3DzLZXeR8-1" value="UserType" style="shape=partialRectangle;html=1;whiteSpace=wrap;connectable=0;strokeColor=inherit;overflow=hidden;fillColor=none;top=0;left=0;bottom=0;right=0;pointerEvents=1;" vertex="1" parent="C1jLJrb4n3oBirYwQFJx-2">
          <mxGeometry x="267" width="89" height="70" as="geometry">
            <mxRectangle width="89" height="70" as="alternateBounds" />
          </mxGeometry>
        </mxCell>
        <mxCell id="C1jLJrb4n3oBirYwQFJx-6" value="FirstName&lt;br&gt;" style="shape=partialRectangle;html=1;whiteSpace=wrap;connectable=0;strokeColor=inherit;overflow=hidden;fillColor=none;top=0;left=0;bottom=0;right=0;pointerEvents=1;" parent="C1jLJrb4n3oBirYwQFJx-2" vertex="1">
          <mxGeometry x="356" width="89" height="70" as="geometry">
            <mxRectangle width="89" height="70" as="alternateBounds" />
          </mxGeometry>
        </mxCell>
        <mxCell id="C1jLJrb4n3oBirYwQFJx-7" value="LastName" style="shape=partialRectangle;html=1;whiteSpace=wrap;connectable=0;strokeColor=inherit;overflow=hidden;fillColor=none;top=0;left=0;bottom=0;right=0;pointerEvents=1;" parent="C1jLJrb4n3oBirYwQFJx-2" vertex="1">
          <mxGeometry x="445" width="89" height="70" as="geometry">
            <mxRectangle width="89" height="70" as="alternateBounds" />
          </mxGeometry>
        </mxCell>
        <mxCell id="C1jLJrb4n3oBirYwQFJx-9" value="Email" style="shape=partialRectangle;html=1;whiteSpace=wrap;connectable=0;strokeColor=inherit;overflow=hidden;fillColor=none;top=0;left=0;bottom=0;right=0;pointerEvents=1;" parent="C1jLJrb4n3oBirYwQFJx-2" vertex="1">
          <mxGeometry x="534" width="89" height="70" as="geometry">
            <mxRectangle width="89" height="70" as="alternateBounds" />
          </mxGeometry>
        </mxCell>
        <mxCell id="C1jLJrb4n3oBirYwQFJx-10" value="PasswordHash" style="shape=partialRectangle;html=1;whiteSpace=wrap;connectable=0;strokeColor=inherit;overflow=hidden;fillColor=none;top=0;left=0;bottom=0;right=0;pointerEvents=1;" parent="C1jLJrb4n3oBirYwQFJx-2" vertex="1">
          <mxGeometry x="623" width="89" height="70" as="geometry">
            <mxRectangle width="89" height="70" as="alternateBounds" />
          </mxGeometry>
        </mxCell>
        <mxCell id="C1jLJrb4n3oBirYwQFJx-11" value="PasswordSalt" style="shape=partialRectangle;html=1;whiteSpace=wrap;connectable=0;strokeColor=inherit;overflow=hidden;fillColor=none;top=0;left=0;bottom=0;right=0;pointerEvents=1;" parent="C1jLJrb4n3oBirYwQFJx-2" vertex="1">
          <mxGeometry x="712" width="89" height="70" as="geometry">
            <mxRectangle width="89" height="70" as="alternateBounds" />
          </mxGeometry>
        </mxCell>
        <mxCell id="C1jLJrb4n3oBirYwQFJx-12" value="PasswordDate" style="shape=partialRectangle;html=1;whiteSpace=wrap;connectable=0;strokeColor=inherit;overflow=hidden;fillColor=none;top=0;left=0;bottom=0;right=0;pointerEvents=1;" parent="C1jLJrb4n3oBirYwQFJx-2" vertex="1">
          <mxGeometry x="801" width="89" height="70" as="geometry">
            <mxRectangle width="89" height="70" as="alternateBounds" />
          </mxGeometry>
        </mxCell>
        <mxCell id="gcv4qvrsUKg5lfSOAShm-57" value="" style="group" parent="1" vertex="1" connectable="0">
          <mxGeometry x="1243" y="1378" width="800" as="geometry" />
        </mxCell>
        <mxCell id="gcv4qvrsUKg5lfSOAShm-51" value="" style="group" parent="gcv4qvrsUKg5lfSOAShm-57" vertex="1" connectable="0">
          <mxGeometry width="800" as="geometry" />
        </mxCell>
        <mxCell id="C1jLJrb4n3oBirYwQFJx-15" value="" style="endArrow=none;html=1;rounded=0;entryX=0.056;entryY=0.998;entryDx=0;entryDy=0;entryPerimeter=0;" parent="gcv4qvrsUKg5lfSOAShm-51" target="C1jLJrb4n3oBirYwQFJx-2" edge="1">
          <mxGeometry width="50" height="50" relative="1" as="geometry">
            <mxPoint as="sourcePoint" />
            <mxPoint x="380" as="targetPoint" />
          </mxGeometry>
        </mxCell>
        <mxCell id="C1jLJrb4n3oBirYwQFJx-16" value="" style="endArrow=classic;html=1;rounded=0;entryX=0.36;entryY=1.042;entryDx=0;entryDy=0;entryPerimeter=0;" parent="gcv4qvrsUKg5lfSOAShm-51" target="C1jLJrb4n3oBirYwQFJx-2" edge="1">
          <mxGeometry width="50" height="50" relative="1" as="geometry">
            <mxPoint x="270" as="sourcePoint" />
            <mxPoint x="400" as="targetPoint" />
          </mxGeometry>
        </mxCell>
        <mxCell id="C1jLJrb4n3oBirYwQFJx-17" value="" style="endArrow=classic;html=1;rounded=0;entryX=0.446;entryY=0.992;entryDx=0;entryDy=0;entryPerimeter=0;" parent="gcv4qvrsUKg5lfSOAShm-51" target="C1jLJrb4n3oBirYwQFJx-2" edge="1">
          <mxGeometry width="50" height="50" relative="1" as="geometry">
            <mxPoint x="347" as="sourcePoint" />
            <mxPoint x="350" as="targetPoint" />
          </mxGeometry>
        </mxCell>
        <mxCell id="C1jLJrb4n3oBirYwQFJx-18" value="" style="endArrow=classic;html=1;rounded=0;entryX=0.738;entryY=0.992;entryDx=0;entryDy=0;entryPerimeter=0;" parent="gcv4qvrsUKg5lfSOAShm-51" target="C1jLJrb4n3oBirYwQFJx-2" edge="1">
          <mxGeometry width="50" height="50" relative="1" as="geometry">
            <mxPoint x="607" as="sourcePoint" />
            <mxPoint x="610" as="targetPoint" />
          </mxGeometry>
        </mxCell>
        <mxCell id="C1jLJrb4n3oBirYwQFJx-19" value="" style="endArrow=classic;html=1;rounded=0;entryX=0.649;entryY=1.025;entryDx=0;entryDy=0;entryPerimeter=0;" parent="gcv4qvrsUKg5lfSOAShm-51" target="C1jLJrb4n3oBirYwQFJx-2" edge="1">
          <mxGeometry width="50" height="50" relative="1" as="geometry">
            <mxPoint x="528" as="sourcePoint" />
            <mxPoint x="530" as="targetPoint" />
          </mxGeometry>
        </mxCell>
        <mxCell id="C1jLJrb4n3oBirYwQFJx-20" value="" style="endArrow=classic;html=1;rounded=0;entryX=0.549;entryY=1.025;entryDx=0;entryDy=0;entryPerimeter=0;" parent="gcv4qvrsUKg5lfSOAShm-51" target="C1jLJrb4n3oBirYwQFJx-2" edge="1">
          <mxGeometry width="50" height="50" relative="1" as="geometry">
            <mxPoint x="439" as="sourcePoint" />
            <mxPoint x="440" as="targetPoint" />
          </mxGeometry>
        </mxCell>
        <mxCell id="C1jLJrb4n3oBirYwQFJx-21" value="" style="endArrow=classic;html=1;rounded=0;entryX=0.842;entryY=1.058;entryDx=0;entryDy=0;entryPerimeter=0;" parent="gcv4qvrsUKg5lfSOAShm-51" target="C1jLJrb4n3oBirYwQFJx-2" edge="1">
          <mxGeometry width="50" height="50" relative="1" as="geometry">
            <mxPoint x="700" as="sourcePoint" />
            <mxPoint x="700" as="targetPoint" />
          </mxGeometry>
        </mxCell>
        <mxCell id="C1jLJrb4n3oBirYwQFJx-22" value="" style="endArrow=classic;html=1;rounded=0;entryX=0.955;entryY=0.975;entryDx=0;entryDy=0;entryPerimeter=0;" parent="gcv4qvrsUKg5lfSOAShm-51" target="C1jLJrb4n3oBirYwQFJx-2" edge="1">
          <mxGeometry width="50" height="50" relative="1" as="geometry">
            <mxPoint x="800" as="sourcePoint" />
            <mxPoint x="800" as="targetPoint" />
          </mxGeometry>
        </mxCell>
        <mxCell id="C1jLJrb4n3oBirYwQFJx-25" value="" style="endArrow=none;html=1;rounded=0;entryX=0.244;entryY=1.016;entryDx=0;entryDy=0;entryPerimeter=0;" parent="gcv4qvrsUKg5lfSOAShm-51" target="C1jLJrb4n3oBirYwQFJx-2" edge="1">
          <mxGeometry width="50" height="50" relative="1" as="geometry">
            <mxPoint x="167" as="sourcePoint" />
            <mxPoint x="170" as="targetPoint" />
          </mxGeometry>
        </mxCell>
        <mxCell id="C1jLJrb4n3oBirYwQFJx-26" value="" style="endArrow=none;html=1;rounded=0;entryX=0.146;entryY=0.978;entryDx=0;entryDy=0;entryPerimeter=0;" parent="gcv4qvrsUKg5lfSOAShm-51" target="C1jLJrb4n3oBirYwQFJx-2" edge="1">
          <mxGeometry width="50" height="50" relative="1" as="geometry">
            <mxPoint x="80" as="sourcePoint" />
            <mxPoint x="80" as="targetPoint" />
          </mxGeometry>
        </mxCell>
        <mxCell id="C1jLJrb4n3oBirYwQFJx-13" value="" style="endArrow=none;html=1;rounded=0;" parent="gcv4qvrsUKg5lfSOAShm-57" edge="1">
          <mxGeometry width="50" height="50" relative="1" as="geometry">
            <mxPoint as="sourcePoint" />
            <mxPoint x="800" as="targetPoint" />
          </mxGeometry>
        </mxCell>
        <mxCell id="gcv4qvrsUKg5lfSOAShm-59" value="FD1" style="text;html=1;align=center;verticalAlign=middle;resizable=0;points=[];autosize=1;strokeColor=none;fillColor=none;" parent="1" vertex="1">
          <mxGeometry x="1178" y="1348" width="50" height="30" as="geometry" />
        </mxCell>
        <mxCell id="gcv4qvrsUKg5lfSOAShm-60" value="FD3" style="text;html=1;align=center;verticalAlign=middle;resizable=0;points=[];autosize=1;strokeColor=none;fillColor=none;" parent="1" vertex="1">
          <mxGeometry x="1178" y="1428" width="50" height="30" as="geometry" />
        </mxCell>
        <mxCell id="gcv4qvrsUKg5lfSOAShm-61" value="FD2" style="text;html=1;align=center;verticalAlign=middle;resizable=0;points=[];autosize=1;strokeColor=none;fillColor=none;" parent="1" vertex="1">
          <mxGeometry x="1178" y="1388" width="50" height="30" as="geometry" />
        </mxCell>
        <mxCell id="gcv4qvrsUKg5lfSOAShm-62" value="FD4" style="text;html=1;align=center;verticalAlign=middle;resizable=0;points=[];autosize=1;strokeColor=none;fillColor=none;" parent="1" vertex="1">
          <mxGeometry x="1178" y="1468" width="50" height="30" as="geometry" />
        </mxCell>
        <mxCell id="gcv4qvrsUKg5lfSOAShm-63" value="&lt;h1 style=&quot;background-image: initial; background-position: initial; background-size: initial; background-repeat: initial; background-attachment: initial; background-origin: initial; background-clip: initial;&quot;&gt;Explanation&lt;span style=&quot;font-family:&amp;quot;Helvetica&amp;quot;,sans-serif;mso-fareast-font-family:&amp;quot;Times New Roman&amp;quot;&quot;&gt;&lt;/span&gt;&lt;/h1&gt;&lt;div&gt;UserAccountID, UserName, SSN are Primary keys.&amp;nbsp;&lt;/div&gt;&lt;p&gt;UserAccountID can uniquely identify all other attributes.&lt;/p&gt;&lt;p&gt;UserName can uniquely identify all other attributes.&lt;/p&gt;&lt;p&gt;SSN can uniquely identify all other attributes.&lt;/p&gt;&lt;p&gt;All three primary keys can uniquely identify all other attributes.&lt;/p&gt;&lt;p&gt;So, this relation is in the second normal form (2NF).&lt;/p&gt;" style="text;html=1;strokeColor=none;fillColor=none;spacing=5;spacingTop=-20;whiteSpace=wrap;overflow=hidden;rounded=0;" parent="1" vertex="1">
          <mxGeometry x="2138" y="1260" width="380" height="270" as="geometry" />
        </mxCell>
        <mxCell id="gcv4qvrsUKg5lfSOAShm-65" value="" style="shape=flexArrow;endArrow=classic;html=1;rounded=0;" parent="1" edge="1">
          <mxGeometry width="50" height="50" relative="1" as="geometry">
            <mxPoint x="1640" y="1540" as="sourcePoint" />
            <mxPoint x="1320" y="1660" as="targetPoint" />
          </mxGeometry>
        </mxCell>
        <mxCell id="gcv4qvrsUKg5lfSOAShm-67" value="" style="shape=flexArrow;endArrow=classic;html=1;rounded=0;" parent="1" edge="1">
          <mxGeometry width="50" height="50" relative="1" as="geometry">
            <mxPoint x="1680" y="1540" as="sourcePoint" />
            <mxPoint x="2000" y="1660" as="targetPoint" />
          </mxGeometry>
        </mxCell>
        <mxCell id="gcv4qvrsUKg5lfSOAShm-267" value="" style="shape=table;startSize=0;container=1;collapsible=0;childLayout=tableLayout;" parent="1" vertex="1">
          <mxGeometry x="990" y="1680" width="320" height="80" as="geometry" />
        </mxCell>
        <mxCell id="gcv4qvrsUKg5lfSOAShm-268" value="" style="shape=tableRow;horizontal=0;startSize=0;swimlaneHead=0;swimlaneBody=0;strokeColor=inherit;top=0;left=0;bottom=0;right=0;collapsible=0;dropTarget=0;fillColor=none;points=[[0,0.5],[1,0.5]];portConstraint=eastwest;" parent="gcv4qvrsUKg5lfSOAShm-267" vertex="1">
          <mxGeometry width="320" height="80" as="geometry" />
        </mxCell>
        <mxCell id="gcv4qvrsUKg5lfSOAShm-269" value="&lt;u&gt;UserAccountID&lt;/u&gt;&lt;br&gt;PK&lt;br&gt;int" style="shape=partialRectangle;html=1;whiteSpace=wrap;connectable=0;strokeColor=inherit;overflow=hidden;fillColor=none;top=0;left=0;bottom=0;right=0;pointerEvents=1;" parent="gcv4qvrsUKg5lfSOAShm-268" vertex="1">
          <mxGeometry width="107" height="80" as="geometry">
            <mxRectangle width="107" height="80" as="alternateBounds" />
          </mxGeometry>
        </mxCell>
        <mxCell id="gcv4qvrsUKg5lfSOAShm-270" value="&lt;u&gt;UserName&lt;/u&gt;&lt;br&gt;PK&lt;br&gt;varchar(50)" style="shape=partialRectangle;html=1;whiteSpace=wrap;connectable=0;strokeColor=inherit;overflow=hidden;fillColor=none;top=0;left=0;bottom=0;right=0;pointerEvents=1;" parent="gcv4qvrsUKg5lfSOAShm-268" vertex="1">
          <mxGeometry x="107" width="106" height="80" as="geometry">
            <mxRectangle width="106" height="80" as="alternateBounds" />
          </mxGeometry>
        </mxCell>
        <mxCell id="gcv4qvrsUKg5lfSOAShm-271" value="&lt;u&gt;SSN&lt;/u&gt;&lt;br&gt;PK&lt;br&gt;varchar(15)" style="shape=partialRectangle;html=1;whiteSpace=wrap;connectable=0;strokeColor=inherit;overflow=hidden;fillColor=none;top=0;left=0;bottom=0;right=0;pointerEvents=1;" parent="gcv4qvrsUKg5lfSOAShm-268" vertex="1">
          <mxGeometry x="213" width="107" height="80" as="geometry">
            <mxRectangle width="107" height="80" as="alternateBounds" />
          </mxGeometry>
        </mxCell>
        <mxCell id="gcv4qvrsUKg5lfSOAShm-274" value="&lt;h1 style=&quot;text-align: center;&quot;&gt;&lt;b style=&quot;border-color: var(--border-color);&quot;&gt;&lt;font style=&quot;font-size: 24px;&quot;&gt;UserAccount Table on the 2NF&lt;/font&gt;&lt;/b&gt;&lt;br&gt;&lt;/h1&gt;" style="text;html=1;strokeColor=none;fillColor=none;spacing=5;spacingTop=-20;whiteSpace=wrap;overflow=hidden;rounded=0;" parent="1" vertex="1">
          <mxGeometry x="1503" y="1200" width="360" height="40" as="geometry" />
        </mxCell>
        <mxCell id="gcv4qvrsUKg5lfSOAShm-275" value="" style="shape=table;startSize=0;container=1;collapsible=0;childLayout=tableLayout;" parent="1" vertex="1">
          <mxGeometry x="1700" y="1680" width="712" height="80" as="geometry" />
        </mxCell>
        <mxCell id="gcv4qvrsUKg5lfSOAShm-276" value="" style="shape=tableRow;horizontal=0;startSize=0;swimlaneHead=0;swimlaneBody=0;strokeColor=inherit;top=0;left=0;bottom=0;right=0;collapsible=0;dropTarget=0;fillColor=none;points=[[0,0.5],[1,0.5]];portConstraint=eastwest;" parent="gcv4qvrsUKg5lfSOAShm-275" vertex="1">
          <mxGeometry width="712" height="80" as="geometry" />
        </mxCell>
        <mxCell id="gcv4qvrsUKg5lfSOAShm-279" value="&lt;u&gt;SSN&lt;/u&gt;&lt;br&gt;FK&lt;br&gt;varchar(15)" style="shape=partialRectangle;html=1;whiteSpace=wrap;connectable=0;strokeColor=inherit;overflow=hidden;fillColor=none;top=0;left=0;bottom=0;right=0;pointerEvents=1;" parent="gcv4qvrsUKg5lfSOAShm-276" vertex="1">
          <mxGeometry width="89" height="80" as="geometry">
            <mxRectangle width="89" height="80" as="alternateBounds" />
          </mxGeometry>
        </mxCell>
        <mxCell id="MJ64a9vV4Tg3DzLZXeR8-4" value="UserType&lt;br style=&quot;border-color: var(--border-color);&quot;&gt;varchar(15)" style="shape=partialRectangle;html=1;whiteSpace=wrap;connectable=0;strokeColor=inherit;overflow=hidden;fillColor=none;top=0;left=0;bottom=0;right=0;pointerEvents=1;" vertex="1" parent="gcv4qvrsUKg5lfSOAShm-276">
          <mxGeometry x="89" width="89" height="80" as="geometry">
            <mxRectangle width="89" height="80" as="alternateBounds" />
          </mxGeometry>
        </mxCell>
        <mxCell id="gcv4qvrsUKg5lfSOAShm-280" value="FirstName&lt;br&gt;varchar(50)" style="shape=partialRectangle;html=1;whiteSpace=wrap;connectable=0;strokeColor=inherit;overflow=hidden;fillColor=none;top=0;left=0;bottom=0;right=0;pointerEvents=1;" parent="gcv4qvrsUKg5lfSOAShm-276" vertex="1">
          <mxGeometry x="178" width="89" height="80" as="geometry">
            <mxRectangle width="89" height="80" as="alternateBounds" />
          </mxGeometry>
        </mxCell>
        <mxCell id="gcv4qvrsUKg5lfSOAShm-281" value="LastName&lt;br&gt;varchar(50)" style="shape=partialRectangle;html=1;whiteSpace=wrap;connectable=0;strokeColor=inherit;overflow=hidden;fillColor=none;top=0;left=0;bottom=0;right=0;pointerEvents=1;" parent="gcv4qvrsUKg5lfSOAShm-276" vertex="1">
          <mxGeometry x="267" width="89" height="80" as="geometry">
            <mxRectangle width="89" height="80" as="alternateBounds" />
          </mxGeometry>
        </mxCell>
        <mxCell id="gcv4qvrsUKg5lfSOAShm-283" value="Email&lt;br&gt;varchar(50)" style="shape=partialRectangle;html=1;whiteSpace=wrap;connectable=0;strokeColor=inherit;overflow=hidden;fillColor=none;top=0;left=0;bottom=0;right=0;pointerEvents=1;" parent="gcv4qvrsUKg5lfSOAShm-276" vertex="1">
          <mxGeometry x="356" width="89" height="80" as="geometry">
            <mxRectangle width="89" height="80" as="alternateBounds" />
          </mxGeometry>
        </mxCell>
        <mxCell id="gcv4qvrsUKg5lfSOAShm-284" value="PasswordHash&lt;br&gt;varchar(2000)" style="shape=partialRectangle;html=1;whiteSpace=wrap;connectable=0;strokeColor=inherit;overflow=hidden;fillColor=none;top=0;left=0;bottom=0;right=0;pointerEvents=1;" parent="gcv4qvrsUKg5lfSOAShm-276" vertex="1">
          <mxGeometry x="445" width="89" height="80" as="geometry">
            <mxRectangle width="89" height="80" as="alternateBounds" />
          </mxGeometry>
        </mxCell>
        <mxCell id="gcv4qvrsUKg5lfSOAShm-285" value="PasswordSalt&lt;br&gt;varchar(2000)" style="shape=partialRectangle;html=1;whiteSpace=wrap;connectable=0;strokeColor=inherit;overflow=hidden;fillColor=none;top=0;left=0;bottom=0;right=0;pointerEvents=1;" parent="gcv4qvrsUKg5lfSOAShm-276" vertex="1">
          <mxGeometry x="534" width="89" height="80" as="geometry">
            <mxRectangle width="89" height="80" as="alternateBounds" />
          </mxGeometry>
        </mxCell>
        <mxCell id="gcv4qvrsUKg5lfSOAShm-286" value="PasswordDate&lt;br&gt;date" style="shape=partialRectangle;html=1;whiteSpace=wrap;connectable=0;strokeColor=inherit;overflow=hidden;fillColor=none;top=0;left=0;bottom=0;right=0;pointerEvents=1;" parent="gcv4qvrsUKg5lfSOAShm-276" vertex="1">
          <mxGeometry x="623" width="89" height="80" as="geometry">
            <mxRectangle width="89" height="80" as="alternateBounds" />
          </mxGeometry>
        </mxCell>
        <mxCell id="gcv4qvrsUKg5lfSOAShm-306" value="" style="group" parent="1" vertex="1" connectable="0">
          <mxGeometry x="1410" y="1458" width="633" height="40" as="geometry" />
        </mxCell>
        <mxCell id="gcv4qvrsUKg5lfSOAShm-26" value="" style="endArrow=none;html=1;rounded=0;" parent="gcv4qvrsUKg5lfSOAShm-306" edge="1">
          <mxGeometry width="50" height="50" relative="1" as="geometry">
            <mxPoint x="3" y="40" as="sourcePoint" />
            <mxPoint x="633" y="39.80392156862763" as="targetPoint" />
          </mxGeometry>
        </mxCell>
        <mxCell id="gcv4qvrsUKg5lfSOAShm-28" value="" style="endArrow=classic;html=1;rounded=0;entryX=0.36;entryY=1.042;entryDx=0;entryDy=0;entryPerimeter=0;" parent="gcv4qvrsUKg5lfSOAShm-306" edge="1">
          <mxGeometry width="50" height="50" relative="1" as="geometry">
            <mxPoint x="103" y="39.80392156862763" as="sourcePoint" />
            <mxPoint x="103" y="1.1764705882351336" as="targetPoint" />
          </mxGeometry>
        </mxCell>
        <mxCell id="gcv4qvrsUKg5lfSOAShm-29" value="" style="endArrow=classic;html=1;rounded=0;entryX=0.446;entryY=0.992;entryDx=0;entryDy=0;entryPerimeter=0;" parent="gcv4qvrsUKg5lfSOAShm-306" edge="1">
          <mxGeometry width="50" height="50" relative="1" as="geometry">
            <mxPoint x="180" y="39.41176470588243" as="sourcePoint" />
            <mxPoint x="180" y="0.3921568627451961" as="targetPoint" />
          </mxGeometry>
        </mxCell>
        <mxCell id="gcv4qvrsUKg5lfSOAShm-30" value="" style="endArrow=classic;html=1;rounded=0;entryX=0.738;entryY=0.992;entryDx=0;entryDy=0;entryPerimeter=0;" parent="gcv4qvrsUKg5lfSOAShm-306" edge="1">
          <mxGeometry width="50" height="50" relative="1" as="geometry">
            <mxPoint x="440" y="39.80392156862763" as="sourcePoint" />
            <mxPoint x="440" y="0.3921568627451961" as="targetPoint" />
          </mxGeometry>
        </mxCell>
        <mxCell id="gcv4qvrsUKg5lfSOAShm-31" value="" style="endArrow=classic;html=1;rounded=0;entryX=0.649;entryY=1.025;entryDx=0;entryDy=0;entryPerimeter=0;" parent="gcv4qvrsUKg5lfSOAShm-306" edge="1">
          <mxGeometry width="50" height="50" relative="1" as="geometry">
            <mxPoint x="361" y="39.80392156862763" as="sourcePoint" />
            <mxPoint x="361" y="0.7843137254903922" as="targetPoint" />
          </mxGeometry>
        </mxCell>
        <mxCell id="gcv4qvrsUKg5lfSOAShm-32" value="" style="endArrow=classic;html=1;rounded=0;entryX=0.549;entryY=1.025;entryDx=0;entryDy=0;entryPerimeter=0;" parent="gcv4qvrsUKg5lfSOAShm-306" edge="1">
          <mxGeometry width="50" height="50" relative="1" as="geometry">
            <mxPoint x="272" y="39.80392156862763" as="sourcePoint" />
            <mxPoint x="272" y="0.7843137254903922" as="targetPoint" />
          </mxGeometry>
        </mxCell>
        <mxCell id="gcv4qvrsUKg5lfSOAShm-33" value="" style="endArrow=classic;html=1;rounded=0;entryX=0.842;entryY=1.058;entryDx=0;entryDy=0;entryPerimeter=0;" parent="gcv4qvrsUKg5lfSOAShm-306" edge="1">
          <mxGeometry width="50" height="50" relative="1" as="geometry">
            <mxPoint x="533" y="39.607843137254804" as="sourcePoint" />
            <mxPoint x="532" y="1.1764705882351336" as="targetPoint" />
          </mxGeometry>
        </mxCell>
        <mxCell id="gcv4qvrsUKg5lfSOAShm-34" value="" style="endArrow=classic;html=1;rounded=0;entryX=0.955;entryY=0.975;entryDx=0;entryDy=0;entryPerimeter=0;" parent="gcv4qvrsUKg5lfSOAShm-306" edge="1">
          <mxGeometry width="50" height="50" relative="1" as="geometry">
            <mxPoint x="633" y="39.80392156862763" as="sourcePoint" />
            <mxPoint x="633" as="targetPoint" />
          </mxGeometry>
        </mxCell>
        <mxCell id="gcv4qvrsUKg5lfSOAShm-35" value="" style="endArrow=none;html=1;rounded=0;entryX=0.244;entryY=1.016;entryDx=0;entryDy=0;entryPerimeter=0;" parent="gcv4qvrsUKg5lfSOAShm-306" edge="1">
          <mxGeometry width="50" height="50" relative="1" as="geometry">
            <mxPoint y="39.80392156862763" as="sourcePoint" />
            <mxPoint y="0.7843137254903922" as="targetPoint" />
          </mxGeometry>
        </mxCell>
        <mxCell id="gcv4qvrsUKg5lfSOAShm-307" value="" style="group" parent="1" vertex="1" connectable="0">
          <mxGeometry x="1739.5" y="1760" width="633" height="40" as="geometry" />
        </mxCell>
        <mxCell id="gcv4qvrsUKg5lfSOAShm-297" value="" style="endArrow=none;html=1;rounded=0;" parent="gcv4qvrsUKg5lfSOAShm-307" edge="1">
          <mxGeometry width="50" height="50" relative="1" as="geometry">
            <mxPoint x="3" y="40" as="sourcePoint" />
            <mxPoint x="633" y="39.80392156862763" as="targetPoint" />
          </mxGeometry>
        </mxCell>
        <mxCell id="gcv4qvrsUKg5lfSOAShm-298" value="" style="endArrow=classic;html=1;rounded=0;entryX=0.36;entryY=1.042;entryDx=0;entryDy=0;entryPerimeter=0;" parent="gcv4qvrsUKg5lfSOAShm-307" edge="1">
          <mxGeometry width="50" height="50" relative="1" as="geometry">
            <mxPoint x="103" y="39.80392156862763" as="sourcePoint" />
            <mxPoint x="103" y="1.1764705882351336" as="targetPoint" />
          </mxGeometry>
        </mxCell>
        <mxCell id="gcv4qvrsUKg5lfSOAShm-299" value="" style="endArrow=classic;html=1;rounded=0;entryX=0.446;entryY=0.992;entryDx=0;entryDy=0;entryPerimeter=0;" parent="gcv4qvrsUKg5lfSOAShm-307" edge="1">
          <mxGeometry width="50" height="50" relative="1" as="geometry">
            <mxPoint x="180" y="39.41176470588243" as="sourcePoint" />
            <mxPoint x="180" y="0.3921568627451961" as="targetPoint" />
          </mxGeometry>
        </mxCell>
        <mxCell id="gcv4qvrsUKg5lfSOAShm-300" value="" style="endArrow=classic;html=1;rounded=0;entryX=0.738;entryY=0.992;entryDx=0;entryDy=0;entryPerimeter=0;" parent="gcv4qvrsUKg5lfSOAShm-307" edge="1">
          <mxGeometry width="50" height="50" relative="1" as="geometry">
            <mxPoint x="440" y="39.80392156862763" as="sourcePoint" />
            <mxPoint x="440" y="0.3921568627451961" as="targetPoint" />
          </mxGeometry>
        </mxCell>
        <mxCell id="gcv4qvrsUKg5lfSOAShm-301" value="" style="endArrow=classic;html=1;rounded=0;entryX=0.649;entryY=1.025;entryDx=0;entryDy=0;entryPerimeter=0;" parent="gcv4qvrsUKg5lfSOAShm-307" edge="1">
          <mxGeometry width="50" height="50" relative="1" as="geometry">
            <mxPoint x="361" y="39.80392156862763" as="sourcePoint" />
            <mxPoint x="361" y="0.7843137254903922" as="targetPoint" />
          </mxGeometry>
        </mxCell>
        <mxCell id="gcv4qvrsUKg5lfSOAShm-302" value="" style="endArrow=classic;html=1;rounded=0;entryX=0.549;entryY=1.025;entryDx=0;entryDy=0;entryPerimeter=0;" parent="gcv4qvrsUKg5lfSOAShm-307" edge="1">
          <mxGeometry width="50" height="50" relative="1" as="geometry">
            <mxPoint x="272" y="39.80392156862763" as="sourcePoint" />
            <mxPoint x="272" y="0.7843137254903922" as="targetPoint" />
          </mxGeometry>
        </mxCell>
        <mxCell id="gcv4qvrsUKg5lfSOAShm-303" value="" style="endArrow=classic;html=1;rounded=0;entryX=0.842;entryY=1.058;entryDx=0;entryDy=0;entryPerimeter=0;" parent="gcv4qvrsUKg5lfSOAShm-307" edge="1">
          <mxGeometry width="50" height="50" relative="1" as="geometry">
            <mxPoint x="533" y="39.607843137254804" as="sourcePoint" />
            <mxPoint x="532" y="1.1764705882351336" as="targetPoint" />
          </mxGeometry>
        </mxCell>
        <mxCell id="gcv4qvrsUKg5lfSOAShm-304" value="" style="endArrow=classic;html=1;rounded=0;entryX=0.955;entryY=0.975;entryDx=0;entryDy=0;entryPerimeter=0;" parent="gcv4qvrsUKg5lfSOAShm-307" edge="1">
          <mxGeometry width="50" height="50" relative="1" as="geometry">
            <mxPoint x="633" y="39.80392156862763" as="sourcePoint" />
            <mxPoint x="633" as="targetPoint" />
          </mxGeometry>
        </mxCell>
        <mxCell id="gcv4qvrsUKg5lfSOAShm-305" value="" style="endArrow=none;html=1;rounded=0;entryX=0.244;entryY=1.016;entryDx=0;entryDy=0;entryPerimeter=0;" parent="gcv4qvrsUKg5lfSOAShm-307" edge="1">
          <mxGeometry width="50" height="50" relative="1" as="geometry">
            <mxPoint y="39.80392156862763" as="sourcePoint" />
            <mxPoint y="0.7843137254903922" as="targetPoint" />
          </mxGeometry>
        </mxCell>
        <mxCell id="gcv4qvrsUKg5lfSOAShm-309" value="&lt;h1 style=&quot;text-align: center;&quot;&gt;&lt;b style=&quot;border-color: var(--border-color);&quot;&gt;&lt;font style=&quot;font-size: 18px;&quot;&gt;UserAccount Table 1 on the 3NF&lt;/font&gt;&lt;/b&gt;&lt;br&gt;&lt;/h1&gt;" style="text;html=1;strokeColor=none;fillColor=none;spacing=5;spacingTop=-20;whiteSpace=wrap;overflow=hidden;rounded=0;" parent="1" vertex="1">
          <mxGeometry x="1004.25" y="1630" width="291.5" height="40" as="geometry" />
        </mxCell>
        <mxCell id="gcv4qvrsUKg5lfSOAShm-310" value="&lt;h1 style=&quot;text-align: center;&quot;&gt;&lt;b style=&quot;border-color: var(--border-color);&quot;&gt;&lt;font style=&quot;font-size: 18px;&quot;&gt;UserAccount Table 2 on the 3NF&lt;/font&gt;&lt;/b&gt;&lt;br&gt;&lt;/h1&gt;" style="text;html=1;strokeColor=none;fillColor=none;spacing=5;spacingTop=-20;whiteSpace=wrap;overflow=hidden;rounded=0;" parent="1" vertex="1">
          <mxGeometry x="2020" y="1630" width="291.5" height="40" as="geometry" />
        </mxCell>
      </root>
    </mxGraphModel>
  </diagram>
</mxfile>
